<svg id="visual" viewBox="0 0 900 450" width="900" height="450" xmlns="http://www.w3.org/2000/svg" xmlns:xlink="http://www.w3.org/1999/xlink" version="1.1"><rect x="0" y="0" width="900" height="450" fill="#001220"></rect><defs><linearGradient id="grad1_0" x1="50%" y1="0%" x2="100%" y2="100%"><stop offset="10%" stop-color="#715df2" stop-opacity="1"></stop><stop offset="90%" stop-color="#715df2" stop-opacity="1"></stop></linearGradient></defs><defs><linearGradient id="grad1_1" x1="50%" y1="0%" x2="100%" y2="100%"><stop offset="10%" stop-color="#715df2" stop-opacity="1"></stop><stop offset="90%" stop-color="#003f8a" stop-opacity="1"></stop></linearGradient></defs><defs><linearGradient id="grad1_2" x1="50%" y1="0%" x2="100%" y2="100%"><stop offset="10%" stop-color="#001220" stop-opacity="1"></stop><stop offset="90%" stop-color="#003f8a" stop-opacity="1"></stop></linearGradient></defs><defs><linearGradient id="grad2_0" x1="0%" y1="0%" x2="50%" y2="100%"><stop offset="10%" stop-color="#715df2" stop-opacity="1"></stop><stop offset="90%" stop-color="#715df2" stop-opacity="1"></stop></linearGradient></defs><defs><linearGradient id="grad2_1" x1="0%" y1="0%" x2="50%" y2="100%"><stop offset="10%" stop-color="#003f8a" stop-opacity="1"></stop><stop offset="90%" stop-color="#715df2" stop-opacity="1"></stop></linearGradient></defs><defs><linearGradient id="grad2_2" x1="0%" y1="0%" x2="50%" y2="100%"><stop offset="10%" stop-color="#003f8a" stop-opacity="1"></stop><stop offset="90%" stop-color="#001220" stop-opacity="1"></stop></linearGradient></defs><g transform="translate(900, 0)"><path d="M0 247.5C-20.4 223.6 -40.7 199.6 -61.5 189.3C-82.3 178.9 -103.5 182.1 -129.9 178.8C-156.3 175.5 -187.9 165.8 -200.2 145.5C-212.5 125.2 -205.5 94.3 -210.2 68.3C-214.8 42.3 -231.2 21.1 -247.5 0L0 0Z" fill="#002a53"></path><path d="M0 165C-13.6 149 -27.1 133.1 -41 126.2C-54.9 119.3 -69 121.4 -86.6 119.2C-104.2 117 -125.3 110.5 -133.5 97C-141.7 83.4 -137 62.9 -140.1 45.5C-143.2 28.2 -154.1 14.1 -165 0L0 0Z" fill="#2651c0"></path><path d="M0 82.5C-6.8 74.5 -13.6 66.5 -20.5 63.1C-27.4 59.6 -34.5 60.7 -43.3 59.6C-52.1 58.5 -62.6 55.3 -66.7 48.5C-70.8 41.7 -68.5 31.4 -70.1 22.8C-71.6 14.1 -77.1 7 -82.5 0L0 0Z" fill="#715df2"></path></g><g transform="translate(0, 450)"><path d="M0 -247.5C24 -239.2 47.9 -231 72.9 -224.4C97.9 -217.9 123.9 -213.2 145.5 -200.2C167 -187.2 184.1 -166 198.2 -144C212.3 -122 223.4 -99.2 231.1 -75.1C238.8 -51 243.2 -25.5 247.5 0L0 0Z" fill="#002a53"></path><path d="M0 -165C16 -159.5 32 -154 48.6 -149.6C65.3 -145.3 82.6 -142.1 97 -133.5C111.4 -124.8 122.7 -110.7 132.1 -96C141.5 -81.3 148.9 -66.1 154.1 -50.1C159.2 -34 162.1 -17 165 0L0 0Z" fill="#2651c0"></path><path d="M0 -82.5C8 -79.7 16 -77 24.3 -74.8C32.6 -72.6 41.3 -71.1 48.5 -66.7C55.7 -62.4 61.4 -55.3 66.1 -48C70.8 -40.7 74.5 -33.1 77 -25C79.6 -17 81.1 -8.5 82.5 0L0 0Z" fill="#715df2"></path></g></svg>
