<svg id="visual" viewBox="0 0 900 450" width="900" height="450" xmlns="http://www.w3.org/2000/svg"
     xmlns:xlink="http://www.w3.org/1999/xlink" version="1.1">
    <rect x="0" y="0" width="900" height="450" fill="#001d33"></rect>
    <path d="M0 176L25 186.8C50 197.7 100 219.3 150 218.2C200 217 250 193 300 188.7C350 184.3 400 199.7 450 206C500 212.3 550 209.7 600 208.8C650 208 700 209 750 202C800 195 850 180 875 172.5L900 165L900 451L875 451C850 451 800 451 750 451C700 451 650 451 600 451C550 451 500 451 450 451C400 451 350 451 300 451C250 451 200 451 150 451C100 451 50 451 25 451L0 451Z"
          fill="#6600ff"></path>
    <path d="M0 229L25 242C50 255 100 281 150 281.8C200 282.7 250 258.3 300 250.7C350 243 400 252 450 261.8C500 271.7 550 282.3 600 287.2C650 292 700 291 750 294.2C800 297.3 850 304.7 875 308.3L900 312L900 451L875 451C850 451 800 451 750 451C700 451 650 451 600 451C550 451 500 451 450 451C400 451 350 451 300 451C250 451 200 451 150 451C100 451 50 451 25 451L0 451Z"
          fill="#6733fc"></path>
    <path d="M0 299L25 306.2C50 313.3 100 327.7 150 333.7C200 339.7 250 337.3 300 331.7C350 326 400 317 450 315.2C500 313.3 550 318.7 600 324.3C650 330 700 336 750 331.8C800 327.7 850 313.3 875 306.2L900 299L900 451L875 451C850 451 800 451 750 451C700 451 650 451 600 451C550 451 500 451 450 451C400 451 350 451 300 451C250 451 200 451 150 451C100 451 50 451 25 451L0 451Z"
          fill="#6b4bf8"></path>
    <path d="M0 375L25 371.5C50 368 100 361 150 360C200 359 250 364 300 373.8C350 383.7 400 398.3 450 400.7C500 403 550 393 600 387.2C650 381.3 700 379.7 750 375C800 370.3 850 362.7 875 358.8L900 355L900 451L875 451C850 451 800 451 750 451C700 451 650 451 600 451C550 451 500 451 450 451C400 451 350 451 300 451C250 451 200 451 150 451C100 451 50 451 25 451L0 451Z"
          fill="#715df2"></path>
</svg>
